<svg width="446" height="82" viewBox="0 0 446 82" fill="none" xmlns="http://www.w3.org/2000/svg">
<path d="M142.612 8.34657C146.768 8.41867 150.925 8.40659 155.081 8.3103C155.221 13.764 155.098 19.7766 155.099 25.2659L155.116 58.4495L142.554 58.4361C142.584 55.3339 142.516 52.8689 143.02 49.7945C138.808 56.9828 134.563 59.8466 126.039 58.57L125.995 58.5623C125.503 58.4711 125.031 58.3872 124.542 58.2728C120.984 57.4259 117.909 55.1718 116.003 52.0139C111.248 44.2512 111.593 27.1233 120.119 22.0773C124.697 19.3682 132.101 18.9334 136.898 21.3939C139.946 22.957 141.513 25.5601 143.204 28.3602C142.395 22.1014 142.552 14.7297 142.612 8.34657ZM135.508 48.4132C142.06 47.7422 142.598 42.3175 142.158 36.7673C141.683 30.7883 137.856 28.7685 132.313 29.3823C132.25 29.3891 132.187 29.3977 132.123 29.4081C130.512 29.5498 128.373 29.7677 127.335 31.183C125.316 33.9335 125.388 38.4678 125.588 41.7092C126 48.3697 129.966 48.8263 135.508 48.4132Z" fill="#4250EB"/>
<path d="M420.068 8.34113C424.224 8.40673 428.375 8.40169 432.527 8.32593C432.657 14.0429 432.542 20.1468 432.542 25.9133L432.523 58.4557C428.375 58.4218 424.228 58.4257 420.076 58.4672C420.042 55.2438 419.984 52.8697 420.494 49.6894C416.856 57.0582 411.533 59.7465 403.541 58.5735C402.982 58.4846 402.297 58.3356 401.749 58.1993C398.236 57.3085 395.218 55.0306 393.377 51.8741C388.726 44.0553 389.088 26.9268 397.761 21.979C401.752 19.7024 407.194 19.2621 411.612 20.3368C416.301 21.4772 418.31 24.4314 420.612 28.3354C420 21.0864 420.068 15.5926 420.068 8.34113ZM413.431 48.3739C419.501 47.6532 420.201 41.5852 419.596 36.5094C418.831 30.1092 415.228 29.0802 409.565 29.4011C407.993 29.5794 405.638 29.8301 404.694 31.2941C402.449 34.775 402.091 44.257 405.208 47.2005C406.814 48.7169 411.422 48.5633 413.431 48.3739Z" fill="#4250EB"/>
<path d="M305.806 20.8564C309.054 20.5824 315.14 20.9122 318.896 20.804C315.44 33.0986 311.495 46.3082 307.719 58.485C306.651 58.4249 304.67 58.2655 303.688 58.6001L303.752 58.915L304.309 58.9042C310.314 60.2447 311.261 68.0948 307.348 72.0639C303.242 76.2274 296.996 75.6403 291.636 75.6253L282.448 75.6257L282.435 65.2717C285.323 65.3356 298.918 66.0921 300.17 63.8107C303.994 56.8461 289.777 58.468 286.9 58.493C283.232 46.2604 279.809 33.1806 276.364 20.8269C279.143 20.8771 281.924 20.8772 284.703 20.8271C286.26 20.8232 287.817 20.8308 289.374 20.8497C290.394 23.9131 291.187 27.4943 292.036 30.6339C293.642 36.5652 295.229 42.5362 296.614 48.5222C296.878 49.6594 296.726 51.0861 297.271 52.1336L297.563 52.0297C298.18 50.4532 298.184 47.7595 298.67 46.014L305.806 20.8564Z" fill="#4250EB"/>
<path d="M176.324 19.9255C183.088 18.9409 192.416 20.954 196.316 27.0402C199.485 31.988 199.587 36.7285 199.431 42.3342C190.195 42.1756 180.499 42.3138 171.228 42.3543C171.417 42.9775 171.803 44.4716 172.092 44.986C175.811 51.601 182.988 50.8738 186.501 44.8766C189.812 44.989 193.374 44.9263 196.704 44.9263L198.963 44.8655C198.321 47.6473 197.606 49.9868 195.763 52.2524C189.325 60.1679 172.78 60.288 165.231 54.1673C160.341 50.1489 158.502 43.344 158.945 37.1837C159.758 25.8775 165.596 20.9604 176.324 19.9255ZM171.681 36.0391L180.262 36.0887C182.387 36.0781 184.815 36.1161 186.908 35.9848C185.911 29.9097 183.851 28.6526 177.963 28.9044C173.828 29.9042 172.093 31.6642 171.681 36.0391Z" fill="#4250EB"/>
<path d="M325.019 20.2696L334.956 20.267C340.794 20.264 346.953 19.7538 351.592 24.2299C355.693 28.1872 355.199 34.2166 355.179 39.549C355.158 42.5245 355.166 45.5004 355.201 48.4755L358.236 48.4685L358.251 58.446C348.653 58.342 344.138 60.5302 344.249 48.5163C342.963 51.8236 342.301 53.7443 339.748 56.2878C334.058 60.9576 320.676 60.2026 319.089 51.389C316.815 38.7617 323.455 33.7632 335.258 34.6331C336.783 34.7455 341.731 34.7634 343.127 34.4336L343.228 34.0805C342.321 29.795 339.097 30.8535 335.676 30.862C332.102 30.844 328.529 30.8556 324.956 30.8967C324.945 27.3542 324.966 23.8117 325.019 20.2696ZM339.554 47.6693C341.732 46.2665 342.302 45.4707 343.414 43.0877C339.987 43.0365 336.559 43.0381 333.132 43.0931C327.128 43.8046 330.316 51.1849 339.554 47.6693Z" fill="#4250EB"/>
<path d="M77.0776 20.2733L90.039 20.2627C94.9945 20.2621 100.027 20.5049 103.787 24.3275C105.176 25.7635 106.173 27.5408 106.678 29.4847C107.524 32.7017 107.184 44.5263 107.167 48.4835L110.288 48.433C110.326 51.7716 110.327 55.1109 110.293 58.4494C100.472 58.4344 96.7278 60.4054 96.24 48.8273C95.0409 51.9329 94.4548 53.5286 92.199 55.9951C87.484 60.1687 78.4533 60.2076 73.7566 55.9951C69.4157 52.1019 69.8788 42.1814 73.8574 38.1447C78.6234 33.3091 89.1569 34.7039 95.6813 34.5713C95.2856 33.4641 94.4956 31.117 93.0681 31.0167C87.8391 30.6493 82.3523 30.7973 77.0932 30.9331L77.0776 20.2733ZM91.4744 47.7339C93.8757 46.3969 94.327 45.5965 95.407 43.083C92.4102 43.0553 88.4194 42.9544 85.4485 43.0927C79.1013 43.6593 82.4734 51.161 91.4744 47.7339Z" fill="#4250EB"/>
<path d="M251.369 19.7103C255.333 19.0978 263.658 20.0905 266.87 22.5699C270.371 25.2728 271.245 27.5798 272.027 31.6797C268.633 32.0109 265.236 32.2981 261.835 32.5413L261.816 32.5133C261.008 31.3402 260.597 30.6131 259.195 30.0685C256.474 29.0119 247.725 28.534 246.469 31.7477C246.75 34.1642 252.001 34.4326 253.977 34.5851C261.322 35.1517 272.256 36.8114 272.559 46.3828C272.884 56.6647 262.204 58.7305 254.087 58.9103C250.126 59.2094 243.694 58.3602 240.408 56.2197C236.592 53.7347 235.342 50.8581 234.313 46.6184C237.595 45.8846 241.407 45.316 244.797 44.6223C246.79 48.996 249.884 49.2616 254.282 49.262C256.128 49.262 261.234 49.0768 261.171 46.2865C259.451 41.2718 235.31 45.679 235.151 33.2214C235.019 22.8569 242.796 20.3955 251.369 19.7103Z" fill="#4250EB"/>
<path d="M26.9141 8.45644C27.187 8.38953 29.5581 8.32454 29.995 8.30811C30.0206 12.4978 29.9015 16.6431 30.035 20.8441C33.1443 20.9318 36.4972 20.8185 39.6227 20.7529C39.6208 24.1169 39.5793 27.5394 39.7586 30.8941C35.1583 30.8368 25.9571 29.7988 22.4877 33.0604C19.54 35.8315 19.7948 42.9206 22.6176 45.7856C26.162 49.3828 34.3514 48.2945 39.1211 48.3372C39.2981 51.0617 39.1737 55.6702 39.1718 58.5599C37.0727 58.3724 34.2859 58.4359 32.123 58.4328C28.1406 58.4394 25.1667 58.6476 20.9717 57.855C9.18823 55.6283 4.37272 38.5931 14.8759 31.7828C15.5384 31.3533 16.6588 31.2008 17.521 30.6772C16.9686 30.287 15.3892 30.838 14.5284 30.8438C12.5483 30.8571 10.5483 30.8854 8.5692 30.9336L8.5625 20.839C11.8036 20.82 15.0448 20.8454 18.2852 20.9153C18.2185 13.8248 18.6799 9.35578 26.9141 8.45644Z" fill="#4250EB"/>
<path d="M70.7566 19.7799C71.1113 20.356 70.8814 29.6176 70.8643 31.0775C70.7943 31.0756 70.7246 31.0741 70.6546 31.0731C57.759 30.9011 57.6095 34.9283 57.6479 46.1818C57.6757 50.2737 57.6696 54.3656 57.6289 58.4572C53.4471 58.4287 49.2653 58.426 45.0838 58.4495L45.0895 48.6049L45.0591 20.8135C48.7896 20.8515 52.5204 20.8533 56.2509 20.8189C56.5912 24.2173 56.3727 27.8896 56.8918 31.3397C59.1168 21.2828 60.2836 19.7382 70.7566 19.7799Z" fill="#4250EB"/>
<path d="M226.004 19.9189C227.377 19.7357 229.461 19.7758 230.869 19.8077C230.847 23.5602 230.864 27.3129 230.922 31.065C226.512 30.9457 218.944 31.3989 218.038 37.1456C216.978 43.8672 218.239 51.6272 217.656 58.4424C213.502 58.4239 209.348 58.4282 205.194 58.4547L205.185 54.2808L205.149 20.819C208.274 20.6427 213.028 20.7874 216.274 20.7842C216.673 23.8106 216.603 28.0944 216.912 31.4019C218.891 24.919 217.943 20.992 226.004 19.9189Z" fill="#4250EB"/>
<path d="M383.205 19.9204C384.898 19.7556 386.383 19.7758 388.072 19.7826C388.087 23.5449 388.08 27.3072 388.057 31.0694C381.31 31.0439 375.051 31.6465 374.865 40.0815C374.73 46.1787 375.059 52.3784 374.847 58.4576C370.844 58.3482 366.43 58.4426 362.395 58.446L362.378 53.6746L362.372 20.8264C364.222 20.8441 371.889 20.4838 373.007 21.1378C373.293 21.4314 373.598 21.8717 373.622 22.2761C373.809 25.3794 373.829 28.5646 374.104 31.6643C375.972 25.297 375.029 20.9109 383.205 19.9204Z" fill="#4250EB"/>
</svg>
